<?xml version="1.0" encoding="utf-8"?>
<!-- Generator: Adobe Illustrator 26.3.1, SVG Export Plug-In . SVG Version: 6.00 Build 0)  -->
<svg version="1.1" id="Capa_1" xmlns="http://www.w3.org/2000/svg" xmlns:xlink="http://www.w3.org/1999/xlink" x="0px" y="0px"
	 viewBox="0 0 131.11 98.67" style="enable-background:new 0 0 131.11 98.67;" xml:space="preserve">
<style type="text/css">
	.st0{fill:#FFFFFF;}
</style>
<g>
	<path class="st0" d="M64.82,6.66c15.74,0,31.48,0.02,47.22-0.01c5.53-0.01,11.81-0.25,12.1,7.16c0.29,7.43-5.71,7.83-11.44,7.82
		c-31.89-0.04-63.79-0.04-95.68,0C11.3,21.64,5.28,21.3,5.54,13.84C5.8,6.4,12.06,6.64,17.6,6.65C33.34,6.69,49.08,6.66,64.82,6.66z
		"/>
	<path class="st0" d="M63.72,56.41c-15.74,0-31.48-0.05-47.22,0.03c-5.32,0.03-10.74-0.55-10.98-7.08
		c-0.28-7.48,5.58-7.93,11.34-7.92c31.89,0.04,63.79,0.04,95.68,0c5.66-0.01,11.77,0.19,11.59,7.66c-0.17,7.41-6.37,7.34-11.95,7.33
		C96.03,56.39,79.88,56.42,63.72,56.41z"/>
	<path class="st0" d="M64.89,76.27c16.15,0,32.31,0.04,48.46-0.02c5.36-0.02,10.62,0.68,10.82,7.24c0.2,6.55-4.81,7.75-10.32,7.75
		c-32.72-0.04-65.45-0.04-98.17,0c-5.55,0.01-10.48-1.32-10.18-7.87c0.3-6.57,5.6-7.15,10.93-7.13
		C32.59,76.31,48.74,76.27,64.89,76.27z"/>
</g>
</svg>
