<?xml version="1.0" encoding="UTF-8"?><svg id="Capa_1" xmlns="http://www.w3.org/2000/svg" xmlns:xlink="http://www.w3.org/1999/xlink" viewBox="0 0 372.83 87.03"><defs><style>.cls-1{fill:url(#Degradado_sin_nombre_156-3);}.cls-2{fill:url(#Degradado_sin_nombre_156);}.cls-3{fill:url(#Degradado_sin_nombre_156-2);}</style><linearGradient id="Degradado_sin_nombre_156" x1="0" y1="42.38" x2="135.54" y2="42.38" gradientTransform="matrix(1, 0, 0, 1, 0, 0)" gradientUnits="userSpaceOnUse"><stop offset="0" stop-color="#0378fb"/><stop offset=".22" stop-color="#027bf8"/><stop offset=".41" stop-color="#0286f0"/><stop offset=".61" stop-color="#0199e3"/><stop offset=".79" stop-color="#01b3d1"/><stop offset=".98" stop-color="#00d4b9"/><stop offset="1" stop-color="#00dab6"/></linearGradient><linearGradient id="Degradado_sin_nombre_156-2" x1="237.26" y1="43.51" x2="372.8" y2="43.51" xlink:href="#Degradado_sin_nombre_156"/><linearGradient id="Degradado_sin_nombre_156-3" x1="101.49" y1="43.41" x2="228.54" y2="43.41" xlink:href="#Degradado_sin_nombre_156"/></defs><g><polygon class="cls-2" points="0 -2.16 0 86.93 23.2 86.93 23.2 46.71 68.03 85.34 135.54 28.72 135.54 -.21 67.77 54.53 0 -2.16"/><polygon class="cls-3" points="305.03 56.45 237.26 -.24 237.26 1.71 237.26 30.64 237.26 87.26 260.45 87.26 260.45 50.1 304.77 87.26 305.03 87.03 305.29 87.26 349.6 50.1 349.6 87.26 372.8 87.26 372.8 30.64 372.8 1.71 372.8 -.24 305.03 56.45"/></g><path class="cls-1" d="M184.89-.11h-40.27V23.04h37.93c10.36,0,18.76,8.41,18.76,18.77v3.45c0,10.38-8.39,18.77-18.76,18.77h-54.93l-26.13,22.89c1.03-.03,2.07-.02,3.12,0h85.21c10.08-1.14,19.13-5.7,25.93-12.51,7.9-7.9,12.79-18.81,12.79-30.88C228.54,19.44,208.99-.11,184.89-.11Z"/></svg>