<svg width="14" height="14" viewBox="0 0 14 14" fill="none" xmlns="http://www.w3.org/2000/svg">
<path d="M13.9666 3.95008C13.8349 2.7178 13.2463 1.72164 12.2897 0.945515C11.763 0.5181 11.159 0.238517 10.4986 0.0793918C10.2944 0.0301141 10.0855 0.0369582 9.88094 0H9.7992C9.78279 0.0177947 9.76124 0.0130038 9.74106 0.0140304C9.72533 0.0140304 9.7096 0.0140304 9.69386 0.0140304C9.67334 0.0130038 9.6518 0.0177947 9.63538 0H9.30774C9.29132 0.0177947 9.26977 0.0130038 9.2496 0.0140304C9.23386 0.0140304 9.21813 0.0140304 9.2024 0.0140304C9.18188 0.0130038 9.16033 0.0177947 9.14392 0H9.03482C8.83064 0.0383271 8.62201 0.0369582 8.41886 0.0886313C7.49954 0.323385 6.71942 0.782625 6.08466 1.49304C5.32335 2.34514 4.96219 3.34951 4.9362 4.4805C4.92696 4.88601 4.98408 5.28913 5.09968 5.67822C5.14414 5.82742 5.10925 5.91845 5.00357 6.02385C3.4064 7.61648 1.81332 9.21252 0.218543 10.8075C0.121413 10.9047 0.0294127 11.0033 0 11.1439V13.6841C0.0803718 13.9333 0.169294 13.9976 0.436402 13.9979C1.19121 13.9979 1.94637 13.9955 2.70118 14C2.85234 14.001 2.97786 13.9569 3.08491 13.8556C3.25625 13.6927 3.42555 13.5267 3.58595 13.3532C3.72036 13.2078 3.77542 13.0353 3.73746 12.8365C3.71728 12.729 3.71967 12.6188 3.69813 12.5114C3.6759 12.4019 3.71967 12.3533 3.83151 12.3447C4.00354 12.3321 4.17454 12.3091 4.34726 12.2999C4.73339 12.279 4.9061 12.1025 4.92423 11.7188C4.93312 11.5327 4.9615 11.3479 4.97724 11.1624C4.98408 11.0823 5.0258 11.0652 5.09523 11.0693C5.2269 11.0772 5.35755 11.0971 5.48785 11.1148C5.82884 11.1614 6.06345 10.9612 6.06927 10.6149C6.07235 10.4373 6.07166 10.26 6.06927 10.0824C6.0679 9.99002 6.10518 9.94998 6.19855 9.95169C6.33945 9.95443 6.48104 9.94348 6.62127 9.95408C6.85725 9.97188 7.03783 9.88941 7.20234 9.71796C7.46671 9.44283 7.73108 9.16667 8.01871 8.91378C8.11413 8.82994 8.20032 8.8183 8.31591 8.85252C8.68392 8.96169 9.06286 9.01712 9.44557 9.02089C10.2086 9.02876 10.9316 8.86484 11.6115 8.50553C12.4696 8.05176 13.0975 7.38001 13.5397 6.52484C13.9594 5.71313 14.0623 4.84119 13.9672 3.95008H13.9666ZM10.6316 4.57153C9.95413 4.57153 9.39632 4.0086 9.4076 3.33582C9.41889 2.65586 9.9685 2.11312 10.6381 2.12065C11.3143 2.12818 11.8598 2.6781 11.8564 3.34917C11.8526 4.024 11.304 4.57153 10.632 4.57153H10.6316Z" fill="url(#paint0_linear_537_23)"/>
<defs>
<linearGradient id="paint0_linear_537_23" x1="0" y1="6.99982" x2="13.9994" y2="6.99982" gradientUnits="userSpaceOnUse">
<stop stop-color="#0789E2"/>
<stop offset="0.94" stop-color="#00D1C0"/>
</linearGradient>
</defs>
</svg>
